<?xml version="1.0" encoding="UTF-8" standalone="no"?>
<svg
   xmlns:dc="http://purl.org/dc/elements/1.1/"
   xmlns:cc="http://creativecommons.org/ns#"
   xmlns:rdf="http://www.w3.org/1999/02/22-rdf-syntax-ns#"
   xmlns:svg="http://www.w3.org/2000/svg"
   xmlns="http://www.w3.org/2000/svg"
   xmlns:sodipodi="http://sodipodi.sourceforge.net/DTD/sodipodi-0.dtd"
   xmlns:inkscape="http://www.inkscape.org/namespaces/inkscape"
   id="Foreground"
   style="enable-background:new 0 0 16 16"
   xml:space="preserve"
   height="36"
   viewBox="0 0 26.181818 26.181818"
   width="36"
   version="1.0"
   inkscape:version="0.48.3.1 r9886"
   sodipodi:docname="close-window.svg"><defs
   id="defs15" /><sodipodi:namedview
   pagecolor="#ffffff"
   bordercolor="#666666"
   borderopacity="1"
   objecttolerance="10"
   gridtolerance="10"
   guidetolerance="10"
   inkscape:pageopacity="0"
   inkscape:pageshadow="2"
   inkscape:window-width="1366"
   inkscape:window-height="715"
   id="namedview13"
   showgrid="false"
   inkscape:zoom="9.2709556"
   inkscape:cx="4.2254182"
   inkscape:cy="11.923707"
   inkscape:window-x="0"
   inkscape:window-y="27"
   inkscape:window-maximized="1"
   inkscape:current-layer="g859" /><metadata
   id="metadata138"><rdf:RDF><cc:Work
       rdf:about=""><dc:format>image/svg+xml</dc:format><dc:type
         rdf:resource="http://purl.org/dc/dcmitype/StillImage" /><dc:title /></cc:Work></rdf:RDF></metadata>
<g
   id="g859"
   transform="translate(-25.745 4.2182)"><g
     id="g5"><path
       id="path3812"
       opacity="0.16"
       style="color:#000000;enable-background:accumulate"
       d="m27.518 8.4364c-0.0054 0.14449-0.02727 0.29054-0.02727 0.43636 0 6.2659 5.0795 11.345 11.345 11.345 6.2659 0 11.345-5.0795 11.345-11.345 0-0.14583-0.02182-0.29187-0.02728-0.43636-0.22887 6.0641-5.1981 10.909-11.318 10.909-6.1201 0-11.089-4.845-11.318-10.909z" /></g><path
     id="path3810"
     opacity=".4"
     style="color:#000000;enable-background:accumulate;opacity:0.2"
     d="m25 16c0 4.9706-4.0294 9-9 9s-9-4.0294-9-9 4.0294-9 9-9 9 4.0294 9 9z"
     transform="matrix(1.2606 0 0 1.2606 18.667 -12.17)"
     fill="#fff" /><path
     id="path3040"
     style="color:#000000;enable-background:accumulate"
     d="m25 16c0 4.9706-4.0294 9-9 9s-9-4.0294-9-9 4.0294-9 9-9 9 4.0294 9 9z"
     transform="matrix(.87273 0 0 .87273 24.873 -5.9636)"
     fill="#141414" /><path
     id="path27279-0-5-0"
     style="color:#bebebe;enable-background:new"
     fill="#fff"
     d="m35.203 4.3638h0.90874c0.0094-0.0001091 0.01889-0.0004179 0.0284 0 0.23168 0.010192 0.46334 0.11689 0.62476 0.28408l2.073 2.0738 2.1015-2.0738c0.2414-0.2095 0.4059-0.2777 0.6247-0.2841h0.90875v0.90907c0 0.26042-0.03121 0.50058-0.22719 0.6818l-2.0728 2.0738 2.0448 2.045c0.17102 0.17106 0.25558 0.41222 0.25558 0.65339v0.90907h-0.90874c-0.2417 0.001-0.4828-0.084-0.6538-0.255l-2.073-2.074-2.073 2.074c-0.17099 0.17108-0.41208 0.25568-0.65316 0.25568h-0.90874v-0.90907c-0.000002-0.24117 0.08457-0.48233 0.25558-0.65339l2.073-2.046-2.0731-2.0738c-0.1915-0.1769-0.2755-0.4266-0.2555-0.6818v-0.90907z" /></g></svg>