<?xml version="1.0" encoding="UTF-8" standalone="no"?>
<svg id="svg228" xmlns:rdf="http://www.w3.org/1999/02/22-rdf-syntax-ns#" xmlns="http://www.w3.org/2000/svg" height="100%" viewBox="0 0 96 48" width="100%" version="1.1" xmlns:cc="http://creativecommons.org/ns#" xmlns:dc="http://purl.org/dc/elements/1.1/">
 <metadata id="metadata259">
  <rdf:RDF>
   <cc:Work rdf:about="">
    <dc:format>image/svg+xml</dc:format>
    <dc:type rdf:resource="http://purl.org/dc/dcmitype/StillImage"/>
    <dc:title/>
   </cc:Work>
  </rdf:RDF>
 </metadata>
 <g id="g914" transform="translate(10.001 -.0056758)" fill="#fff">
  <path id="path912" opacity=".4" style="color:#000000" d="m1.1875 4.0312c-0.97795 0.099316-1.9084 0.39312-2.75 0.8125l2 3.4688c0.33114-0.1401 0.6929-0.2037 1.0625-0.25v-4.0312c-0.10441 0.00652-0.20922-0.010489-0.3125 0z"/>
  <path id="path910" opacity=".5" style="color:#000000" d="m2.5 4.0312v4.0312c0.36961 0.046307 0.73136 0.10994 1.0625 0.25l2-3.4688c-0.9305-0.4635-1.9695-0.7441-3.0625-0.8124z"/>
  <path id="path908" opacity=".35" style="color:#000000" d="m-2.4062 5.3438c-0.89505 0.59345-1.6566 1.3549-2.25 2.25l3.4688 2c0.22662-0.3015 0.47974-0.5546 0.78115-0.7813l-2-3.4688z"/>
  <path id="path906" opacity=".6" style="color:#000000" d="m6.4062 5.3438-2 3.4688c0.3015 0.2266 0.5546 0.4797 0.7813 0.7812l3.4688-2c-0.59345-0.89505-1.3549-1.6566-2.25-2.25z"/>
  <path id="path904" opacity=".3" style="color:#000000" d="m-5.1562 8.4375c-0.46367 0.93046-0.74423 1.9695-0.8125 3.0625h4.0312c0.046307-0.36961 0.10994-0.73136 0.25-1.0625l-3.4688-2z"/>
  <path id="path902" opacity=".7" style="color:#000000" d="m9.1562 8.4375-3.4688 2c0.14006 0.33114 0.20369 0.69289 0.25 1.0625h4.0312c-0.0681-1.093-0.3487-2.132-0.8124-3.0625z"/>
  <path id="path900" opacity=".25" style="color:#000000" d="m-5.9688 12.5c0.068272 1.093 0.34883 2.132 0.8125 3.0625l3.4688-2c-0.1401-0.331-0.2037-0.692-0.25-1.062h-4.0312z"/>
  <path id="path898" opacity=".8" style="color:#000000" d="m5.9375 12.5c-0.046307 0.36961-0.10994 0.73136-0.25 1.0625l3.4688 2c0.4636-0.93 0.7442-1.969 0.8125-3.062h-4.0312z"/>
  <path id="path896" opacity=".2" style="color:#000000" d="m-1.1875 14.406-3.4688 2c0.59345 0.89505 1.3549 1.6566 2.25 2.25l2-3.4688c-0.30136-0.226-0.55448-0.479-0.7812-0.781z"/>
  <path id="path894" opacity=".9" style="color:#000000" d="m5.1875 14.406c-0.2267 0.302-0.4798 0.555-0.7813 0.782l2 3.4688c0.89505-0.59345 1.6566-1.3549 2.25-2.25l-3.4688-2z"/>
  <path id="path892" opacity=".15" style="color:#000000" d="m0.4375 15.688-2 3.4688c0.93046 0.46367 1.9695 0.74423 3.0625 0.8125v-4.0312c-0.3696-0.048-0.73136-0.111-1.0625-0.251z"/>
  <path id="path829" style="color:#000000" d="m3.5625 15.688c-0.3311 0.14-0.6929 0.203-1.0625 0.25v4.0312c1.093-0.06827 2.132-0.34883 3.0625-0.8125l-2-3.4688z"/>
 </g>
 <g id="g984" transform="matrix(0 1 -1 0 71.96 9.9926)" fill="#fff">
  <path id="path986" opacity=".4" style="color:#000000" d="m1.1875 4.0312c-0.97795 0.099316-1.9084 0.39312-2.75 0.8125l2 3.4688c0.33114-0.1401 0.6929-0.2037 1.0625-0.25v-4.0312c-0.10441 0.00652-0.20922-0.010489-0.3125 0z"/>
  <path id="path988" opacity=".5" style="color:#000000" d="m2.5 4.0312v4.0312c0.36961 0.046307 0.73136 0.10994 1.0625 0.25l2-3.4688c-0.9305-0.4635-1.9695-0.7441-3.0625-0.8124z"/>
  <path id="path990" opacity=".35" style="color:#000000" d="m-2.4062 5.3438c-0.89505 0.59345-1.6566 1.3549-2.25 2.25l3.4688 2c0.22662-0.3015 0.47974-0.5546 0.78115-0.7813l-2-3.4688z"/>
  <path id="path992" opacity=".6" style="color:#000000" d="m6.4062 5.3438-2 3.4688c0.3015 0.2266 0.5546 0.4797 0.7813 0.7812l3.4688-2c-0.59345-0.89505-1.3549-1.6566-2.25-2.25z"/>
  <path id="path994" opacity=".3" style="color:#000000" d="m-5.1562 8.4375c-0.46367 0.93046-0.74423 1.9695-0.8125 3.0625h4.0312c0.046307-0.36961 0.10994-0.73136 0.25-1.0625l-3.4688-2z"/>
  <path id="path996" opacity=".7" style="color:#000000" d="m9.1562 8.4375-3.4688 2c0.14006 0.33114 0.20369 0.69289 0.25 1.0625h4.0312c-0.0681-1.093-0.3487-2.132-0.8124-3.0625z"/>
  <path id="path998" opacity=".25" style="color:#000000" d="m-5.9688 12.5c0.068272 1.093 0.34883 2.132 0.8125 3.0625l3.4688-2c-0.1401-0.331-0.2037-0.692-0.25-1.062h-4.0312z"/>
  <path id="path1000" opacity=".8" style="color:#000000" d="m5.9375 12.5c-0.046307 0.36961-0.10994 0.73136-0.25 1.0625l3.4688 2c0.4636-0.93 0.7442-1.969 0.8125-3.062h-4.0312z"/>
  <path id="path1002" opacity=".2" style="color:#000000" d="m-1.1875 14.406-3.4688 2c0.59345 0.89505 1.3549 1.6566 2.25 2.25l2-3.4688c-0.30136-0.226-0.55448-0.479-0.7812-0.781z"/>
  <path id="path1004" opacity=".9" style="color:#000000" d="m5.1875 14.406c-0.2267 0.302-0.4798 0.555-0.7813 0.782l2 3.4688c0.89505-0.59345 1.6566-1.3549 2.25-2.25l-3.4688-2z"/>
  <path id="path1006" opacity=".15" style="color:#000000" d="m0.4375 15.688-2 3.4688c0.93046 0.46367 1.9695 0.74423 3.0625 0.8125v-4.0312c-0.3696-0.048-0.73136-0.111-1.0625-0.251z"/>
  <path id="path1008" style="color:#000000" d="m3.5625 15.688c-0.3311 0.14-0.6929 0.203-1.0625 0.25v4.0312c1.093-0.06827 2.132-0.34883 3.0625-0.8125l-2-3.4688z"/>
 </g>
 <g id="g1088" transform="matrix(.5 .86603 -.86603 .5 45.401 4.2605)" fill="#fff">
  <path id="path1090" opacity=".4" style="color:#000000" d="m1.1875 4.0312c-0.97795 0.099316-1.9084 0.39312-2.75 0.8125l2 3.4688c0.33114-0.1401 0.6929-0.2037 1.0625-0.25v-4.0312c-0.10441 0.00652-0.20922-0.010489-0.3125 0z"/>
  <path id="path1092" opacity=".5" style="color:#000000" d="m2.5 4.0312v4.0312c0.36961 0.046307 0.73136 0.10994 1.0625 0.25l2-3.4688c-0.9305-0.4635-1.9695-0.7441-3.0625-0.8124z"/>
  <path id="path1094" opacity=".35" style="color:#000000" d="m-2.4062 5.3438c-0.89505 0.59345-1.6566 1.3549-2.25 2.25l3.4688 2c0.22662-0.3015 0.47974-0.5546 0.78115-0.7813l-2-3.4688z"/>
  <path id="path1096" opacity=".6" style="color:#000000" d="m6.4062 5.3438-2 3.4688c0.3015 0.2266 0.5546 0.4797 0.7813 0.7812l3.4688-2c-0.59345-0.89505-1.3549-1.6566-2.25-2.25z"/>
  <path id="path1098" opacity=".3" style="color:#000000" d="m-5.1562 8.4375c-0.46367 0.93046-0.74423 1.9695-0.8125 3.0625h4.0312c0.046307-0.36961 0.10994-0.73136 0.25-1.0625l-3.4688-2z"/>
  <path id="path1100" opacity=".7" style="color:#000000" d="m9.1562 8.4375-3.4688 2c0.14006 0.33114 0.20369 0.69289 0.25 1.0625h4.0312c-0.0681-1.093-0.3487-2.132-0.8124-3.0625z"/>
  <path id="path1102" opacity=".25" style="color:#000000" d="m-5.9688 12.5c0.068272 1.093 0.34883 2.132 0.8125 3.0625l3.4688-2c-0.1401-0.331-0.2037-0.692-0.25-1.062h-4.0312z"/>
  <path id="path1104" opacity=".8" style="color:#000000" d="m5.9375 12.5c-0.046307 0.36961-0.10994 0.73136-0.25 1.0625l3.4688 2c0.4636-0.93 0.7442-1.969 0.8125-3.062h-4.0312z"/>
  <path id="path1106" opacity=".2" style="color:#000000" d="m-1.1875 14.406-3.4688 2c0.59345 0.89505 1.3549 1.6566 2.25 2.25l2-3.4688c-0.30136-0.226-0.55448-0.479-0.7812-0.781z"/>
  <path id="path1108" opacity=".9" style="color:#000000" d="m5.1875 14.406c-0.2267 0.302-0.4798 0.555-0.7813 0.782l2 3.4688c0.89505-0.59345 1.6566-1.3549 2.25-2.25l-3.4688-2z"/>
  <path id="path1110" opacity=".15" style="color:#000000" d="m0.4375 15.688-2 3.4688c0.93046 0.46367 1.9695 0.74423 3.0625 0.8125v-4.0312c-0.3696-0.048-0.73136-0.111-1.0625-0.251z"/>
  <path id="path1112" style="color:#000000" d="m3.5625 15.688c-0.3311 0.14-0.6929 0.203-1.0625 0.25v4.0312c1.093-0.06827 2.132-0.34883 3.0625-0.8125l-2-3.4688z"/>
 </g>
 <g id="g1140" transform="matrix(-.86603 .5 -.5 -.86603 91.717 21.385)" fill="#fff">
  <path id="path1142" opacity=".4" style="color:#000000" d="m1.1875 4.0312c-0.97795 0.099316-1.9084 0.39312-2.75 0.8125l2 3.4688c0.33114-0.1401 0.6929-0.2037 1.0625-0.25v-4.0312c-0.10441 0.00652-0.20922-0.010489-0.3125 0z"/>
  <path id="path1144" opacity=".5" style="color:#000000" d="m2.5 4.0312v4.0312c0.36961 0.046307 0.73136 0.10994 1.0625 0.25l2-3.4688c-0.9305-0.4635-1.9695-0.7441-3.0625-0.8124z"/>
  <path id="path1146" opacity=".35" style="color:#000000" d="m-2.4062 5.3438c-0.89505 0.59345-1.6566 1.3549-2.25 2.25l3.4688 2c0.22662-0.3015 0.47974-0.5546 0.78115-0.7813l-2-3.4688z"/>
  <path id="path1148" opacity=".6" style="color:#000000" d="m6.4062 5.3438-2 3.4688c0.3015 0.2266 0.5546 0.4797 0.7813 0.7812l3.4688-2c-0.59345-0.89505-1.3549-1.6566-2.25-2.25z"/>
  <path id="path1150" opacity=".3" style="color:#000000" d="m-5.1562 8.4375c-0.46367 0.93046-0.74423 1.9695-0.8125 3.0625h4.0312c0.046307-0.36961 0.10994-0.73136 0.25-1.0625l-3.4688-2z"/>
  <path id="path1152" opacity=".7" style="color:#000000" d="m9.1562 8.4375-3.4688 2c0.14006 0.33114 0.20369 0.69289 0.25 1.0625h4.0312c-0.0681-1.093-0.3487-2.132-0.8124-3.0625z"/>
  <path id="path1154" opacity=".25" style="color:#000000" d="m-5.9688 12.5c0.068272 1.093 0.34883 2.132 0.8125 3.0625l3.4688-2c-0.1401-0.331-0.2037-0.692-0.25-1.062h-4.0312z"/>
  <path id="path1156" opacity=".8" style="color:#000000" d="m5.9375 12.5c-0.046307 0.36961-0.10994 0.73136-0.25 1.0625l3.4688 2c0.4636-0.93 0.7442-1.969 0.8125-3.062h-4.0312z"/>
  <path id="path1158" opacity=".2" style="color:#000000" d="m-1.1875 14.406-3.4688 2c0.59345 0.89505 1.3549 1.6566 2.25 2.25l2-3.4688c-0.30136-0.226-0.55448-0.479-0.7812-0.781z"/>
  <path id="path1160" opacity=".9" style="color:#000000" d="m5.1875 14.406c-0.2267 0.302-0.4798 0.555-0.7813 0.782l2 3.4688c0.89505-0.59345 1.6566-1.3549 2.25-2.25l-3.4688-2z"/>
  <path id="path1162" opacity=".15" style="color:#000000" d="m0.4375 15.688-2 3.4688c0.93046 0.46367 1.9695 0.74423 3.0625 0.8125v-4.0312c-0.3696-0.048-0.73136-0.111-1.0625-0.251z"/>
  <path id="path1164" style="color:#000000" d="m3.5625 15.688c-0.3311 0.14-0.6929 0.203-1.0625 0.25v4.0312c1.093-0.06827 2.132-0.34883 3.0625-0.8125l-2-3.4688z"/>
 </g>
 <g id="g1220" transform="matrix(-1 0 0 -1 14.001 48.03)" fill="#fff">
  <path id="path1222" opacity=".4" style="color:#000000" d="m1.1875 4.0312c-0.97795 0.099316-1.9084 0.39312-2.75 0.8125l2 3.4688c0.33114-0.1401 0.6929-0.2037 1.0625-0.25v-4.0312c-0.10441 0.00652-0.20922-0.010489-0.3125 0z"/>
  <path id="path1224" opacity=".5" style="color:#000000" d="m2.5 4.0312v4.0312c0.36961 0.046307 0.73136 0.10994 1.0625 0.25l2-3.4688c-0.9305-0.4635-1.9695-0.7441-3.0625-0.8124z"/>
  <path id="path1226" opacity=".35" style="color:#000000" d="m-2.4062 5.3438c-0.89505 0.59345-1.6566 1.3549-2.25 2.25l3.4688 2c0.22662-0.3015 0.47974-0.5546 0.78115-0.7813l-2-3.4688z"/>
  <path id="path1228" opacity=".6" style="color:#000000" d="m6.4062 5.3438-2 3.4688c0.3015 0.2266 0.5546 0.4797 0.7813 0.7812l3.4688-2c-0.59345-0.89505-1.3549-1.6566-2.25-2.25z"/>
  <path id="path1230" opacity=".3" style="color:#000000" d="m-5.1562 8.4375c-0.46367 0.93046-0.74423 1.9695-0.8125 3.0625h4.0312c0.046307-0.36961 0.10994-0.73136 0.25-1.0625l-3.4688-2z"/>
  <path id="path1232" opacity=".7" style="color:#000000" d="m9.1562 8.4375-3.4688 2c0.14006 0.33114 0.20369 0.69289 0.25 1.0625h4.0312c-0.0681-1.093-0.3487-2.132-0.8124-3.0625z"/>
  <path id="path1234" opacity=".25" style="color:#000000" d="m-5.9688 12.5c0.068272 1.093 0.34883 2.132 0.8125 3.0625l3.4688-2c-0.1401-0.331-0.2037-0.692-0.25-1.062h-4.0312z"/>
  <path id="path1236" opacity=".8" style="color:#000000" d="m5.9375 12.5c-0.046307 0.36961-0.10994 0.73136-0.25 1.0625l3.4688 2c0.4636-0.93 0.7442-1.969 0.8125-3.062h-4.0312z"/>
  <path id="path1238" opacity=".2" style="color:#000000" d="m-1.1875 14.406-3.4688 2c0.59345 0.89505 1.3549 1.6566 2.25 2.25l2-3.4688c-0.30136-0.226-0.55448-0.479-0.7812-0.781z"/>
  <path id="path1240" opacity=".9" style="color:#000000" d="m5.1875 14.406c-0.2267 0.302-0.4798 0.555-0.7813 0.782l2 3.4688c0.89505-0.59345 1.6566-1.3549 2.25-2.25l-3.4688-2z"/>
  <path id="path1242" opacity=".15" style="color:#000000" d="m0.4375 15.688-2 3.4688c0.93046 0.46367 1.9695 0.74423 3.0625 0.8125v-4.0312c-0.3696-0.048-0.73136-0.111-1.0625-0.251z"/>
  <path id="path1244" style="color:#000000" d="m3.5625 15.688c-0.3311 0.14-0.6929 0.203-1.0625 0.25v4.0312c1.093-0.06827 2.132-0.34883 3.0625-0.8125l-2-3.4688z"/>
 </g>
 <g id="g1246" transform="matrix(-.5 -.86603 .86603 -.5 26.616 43.764)" fill="#fff">
  <path id="path1248" opacity=".4" style="color:#000000" d="m1.1875 4.0312c-0.97795 0.099316-1.9084 0.39312-2.75 0.8125l2 3.4688c0.33114-0.1401 0.6929-0.2037 1.0625-0.25v-4.0312c-0.10441 0.00652-0.20922-0.010489-0.3125 0z"/>
  <path id="path1250" opacity=".5" style="color:#000000" d="m2.5 4.0312v4.0312c0.36961 0.046307 0.73136 0.10994 1.0625 0.25l2-3.4688c-0.9305-0.4635-1.9695-0.7441-3.0625-0.8124z"/>
  <path id="path1252" opacity=".35" style="color:#000000" d="m-2.4062 5.3438c-0.89505 0.59345-1.6566 1.3549-2.25 2.25l3.4688 2c0.22662-0.3015 0.47974-0.5546 0.78115-0.7813l-2-3.4688z"/>
  <path id="path1254" opacity=".6" style="color:#000000" d="m6.4062 5.3438-2 3.4688c0.3015 0.2266 0.5546 0.4797 0.7813 0.7812l3.4688-2c-0.59345-0.89505-1.3549-1.6566-2.25-2.25z"/>
  <path id="path1256" opacity=".3" style="color:#000000" d="m-5.1562 8.4375c-0.46367 0.93046-0.74423 1.9695-0.8125 3.0625h4.0312c0.046307-0.36961 0.10994-0.73136 0.25-1.0625l-3.4688-2z"/>
  <path id="path1258" opacity=".7" style="color:#000000" d="m9.1562 8.4375-3.4688 2c0.14006 0.33114 0.20369 0.69289 0.25 1.0625h4.0312c-0.0681-1.093-0.3487-2.132-0.8124-3.0625z"/>
  <path id="path1260" opacity=".25" style="color:#000000" d="m-5.9688 12.5c0.068272 1.093 0.34883 2.132 0.8125 3.0625l3.4688-2c-0.1401-0.331-0.2037-0.692-0.25-1.062h-4.0312z"/>
  <path id="path1262" opacity=".8" style="color:#000000" d="m5.9375 12.5c-0.046307 0.36961-0.10994 0.73136-0.25 1.0625l3.4688 2c0.4636-0.93 0.7442-1.969 0.8125-3.062h-4.0312z"/>
  <path id="path1264" opacity=".2" style="color:#000000" d="m-1.1875 14.406-3.4688 2c0.59345 0.89505 1.3549 1.6566 2.25 2.25l2-3.4688c-0.30136-0.226-0.55448-0.479-0.7812-0.781z"/>
  <path id="path1266" opacity=".9" style="color:#000000" d="m5.1875 14.406c-0.2267 0.302-0.4798 0.555-0.7813 0.782l2 3.4688c0.89505-0.59345 1.6566-1.3549 2.25-2.25l-3.4688-2z"/>
  <path id="path1268" opacity=".15" style="color:#000000" d="m0.4375 15.688-2 3.4688c0.93046 0.46367 1.9695 0.74423 3.0625 0.8125v-4.0312c-0.3696-0.048-0.73136-0.111-1.0625-0.251z"/>
  <path id="path1270" style="color:#000000" d="m3.5625 15.688c-0.3311 0.14-0.6929 0.203-1.0625 0.25v4.0312c1.093-0.06827 2.132-0.34883 3.0625-0.8125l-2-3.4688z"/>
 </g>
 <g id="g1272" transform="matrix(0 -1 1 0 47.963 38.032)" fill="#fff">
  <path id="path1274" opacity=".4" style="color:#000000" d="m1.1875 4.0312c-0.97795 0.099316-1.9084 0.39312-2.75 0.8125l2 3.4688c0.33114-0.1401 0.6929-0.2037 1.0625-0.25v-4.0312c-0.10441 0.00652-0.20922-0.010489-0.3125 0z"/>
  <path id="path1276" opacity=".5" style="color:#000000" d="m2.5 4.0312v4.0312c0.36961 0.046307 0.73136 0.10994 1.0625 0.25l2-3.4688c-0.9305-0.4635-1.9695-0.7441-3.0625-0.8124z"/>
  <path id="path1278" opacity=".35" style="color:#000000" d="m-2.4062 5.3438c-0.89505 0.59345-1.6566 1.3549-2.25 2.25l3.4688 2c0.22662-0.3015 0.47974-0.5546 0.78115-0.7813l-2-3.4688z"/>
  <path id="path1280" opacity=".6" style="color:#000000" d="m6.4062 5.3438-2 3.4688c0.3015 0.2266 0.5546 0.4797 0.7813 0.7812l3.4688-2c-0.59345-0.89505-1.3549-1.6566-2.25-2.25z"/>
  <path id="path1282" opacity=".3" style="color:#000000" d="m-5.1562 8.4375c-0.46367 0.93046-0.74423 1.9695-0.8125 3.0625h4.0312c0.046307-0.36961 0.10994-0.73136 0.25-1.0625l-3.4688-2z"/>
  <path id="path1284" opacity=".7" style="color:#000000" d="m9.1562 8.4375-3.4688 2c0.14006 0.33114 0.20369 0.69289 0.25 1.0625h4.0312c-0.0681-1.093-0.3487-2.132-0.8124-3.0625z"/>
  <path id="path1286" opacity=".25" style="color:#000000" d="m-5.9688 12.5c0.068272 1.093 0.34883 2.132 0.8125 3.0625l3.4688-2c-0.1401-0.331-0.2037-0.692-0.25-1.062h-4.0312z"/>
  <path id="path1288" opacity=".8" style="color:#000000" d="m5.9375 12.5c-0.046307 0.36961-0.10994 0.73136-0.25 1.0625l3.4688 2c0.4636-0.93 0.7442-1.969 0.8125-3.062h-4.0312z"/>
  <path id="path1290" opacity=".2" style="color:#000000" d="m-1.1875 14.406-3.4688 2c0.59345 0.89505 1.3549 1.6566 2.25 2.25l2-3.4688c-0.30136-0.226-0.55448-0.479-0.7812-0.781z"/>
  <path id="path1292" opacity=".9" style="color:#000000" d="m5.1875 14.406c-0.2267 0.302-0.4798 0.555-0.7813 0.782l2 3.4688c0.89505-0.59345 1.6566-1.3549 2.25-2.25l-3.4688-2z"/>
  <path id="path1294" opacity=".15" style="color:#000000" d="m0.4375 15.688-2 3.4688c0.93046 0.46367 1.9695 0.74423 3.0625 0.8125v-4.0312c-0.3696-0.048-0.73136-0.111-1.0625-0.251z"/>
  <path id="path1296" style="color:#000000" d="m3.5625 15.688c-0.3311 0.14-0.6929 0.203-1.0625 0.25v4.0312c1.093-0.06827 2.132-0.34883 3.0625-0.8125l-2-3.4688z"/>
 </g>
 <g id="g1298" transform="matrix(.86603 -.5 .5 .86603 76.253 26.64)" fill="#fff">
  <path id="path1300" opacity=".4" style="color:#000000" d="m1.1875 4.0312c-0.97795 0.099316-1.9084 0.39312-2.75 0.8125l2 3.4688c0.33114-0.1401 0.6929-0.2037 1.0625-0.25v-4.0312c-0.10441 0.00652-0.20922-0.010489-0.3125 0z"/>
  <path id="path1302" opacity=".5" style="color:#000000" d="m2.5 4.0312v4.0312c0.36961 0.046307 0.73136 0.10994 1.0625 0.25l2-3.4688c-0.9305-0.4635-1.9695-0.7441-3.0625-0.8124z"/>
  <path id="path1304" opacity=".35" style="color:#000000" d="m-2.4062 5.3438c-0.89505 0.59345-1.6566 1.3549-2.25 2.25l3.4688 2c0.22662-0.3015 0.47974-0.5546 0.78115-0.7813l-2-3.4688z"/>
  <path id="path1306" opacity=".6" style="color:#000000" d="m6.4062 5.3438-2 3.4688c0.3015 0.2266 0.5546 0.4797 0.7813 0.7812l3.4688-2c-0.59345-0.89505-1.3549-1.6566-2.25-2.25z"/>
  <path id="path1308" opacity=".3" style="color:#000000" d="m-5.1562 8.4375c-0.46367 0.93046-0.74423 1.9695-0.8125 3.0625h4.0312c0.046307-0.36961 0.10994-0.73136 0.25-1.0625l-3.4688-2z"/>
  <path id="path1310" opacity=".7" style="color:#000000" d="m9.1562 8.4375-3.4688 2c0.14006 0.33114 0.20369 0.69289 0.25 1.0625h4.0312c-0.0681-1.093-0.3487-2.132-0.8124-3.0625z"/>
  <path id="path1312" opacity=".25" style="color:#000000" d="m-5.9688 12.5c0.068272 1.093 0.34883 2.132 0.8125 3.0625l3.4688-2c-0.1401-0.331-0.2037-0.692-0.25-1.062h-4.0312z"/>
  <path id="path1314" opacity=".8" style="color:#000000" d="m5.9375 12.5c-0.046307 0.36961-0.10994 0.73136-0.25 1.0625l3.4688 2c0.4636-0.93 0.7442-1.969 0.8125-3.062h-4.0312z"/>
  <path id="path1316" opacity=".2" style="color:#000000" d="m-1.1875 14.406-3.4688 2c0.59345 0.89505 1.3549 1.6566 2.25 2.25l2-3.4688c-0.30136-0.226-0.55448-0.479-0.7812-0.781z"/>
  <path id="path1318" opacity=".9" style="color:#000000" d="m5.1875 14.406c-0.2267 0.302-0.4798 0.555-0.7813 0.782l2 3.4688c0.89505-0.59345 1.6566-1.3549 2.25-2.25l-3.4688-2z"/>
  <path id="path1320" opacity=".15" style="color:#000000" d="m0.4375 15.688-2 3.4688c0.93046 0.46367 1.9695 0.74423 3.0625 0.8125v-4.0312c-0.3696-0.048-0.73136-0.111-1.0625-0.251z"/>
  <path id="path1322" style="color:#000000" d="m3.5625 15.688c-0.3311 0.14-0.6929 0.203-1.0625 0.25v4.0312c1.093-0.06827 2.132-0.34883 3.0625-0.8125l-2-3.4688z"/>
 </g>
</svg>
