<?xml version="1.0" encoding="UTF-8" standalone="no"?>
<svg id="svg3012" xmlns:rdf="http://www.w3.org/1999/02/22-rdf-syntax-ns#" xmlns="http://www.w3.org/2000/svg" height="18" width="65" version="1.1" xmlns:cc="http://creativecommons.org/ns#" xmlns:dc="http://purl.org/dc/elements/1.1/">
 <metadata id="metadata314">
  <rdf:RDF>
   <cc:Work rdf:about="">
    <dc:format>image/svg+xml</dc:format>
    <dc:type rdf:resource="http://purl.org/dc/dcmitype/StillImage"/>
    <dc:title/>
   </cc:Work>
  </rdf:RDF>
 </metadata>
 <g id="layer1" transform="translate(-343,-523.36)">
  <g id="g17454" transform="translate(-453,448.36)" fill="#fff">
   <path id="rect17456" opacity=".25" d="m830 75-8 18h35c1.108 0 2-0.892 2-2v-14c0-1.108-0.89276-2.041-2-2z"/>
   <path id="path1365" opacity=".25" d="m820 92.999 0.875-2h-20.875c-1 0.037-1-1-1-1v-12c0-1 1-1 1-1h27.125l0.875-2h-29c-1.108 0-2 0.892-2 2v14c0 1.108 0.893 2.041 2 2z" fill="#fff"/>
  </g>
 </g>
 <path id="path3908" style="block-progression:tb;text-indent:0;color:#000000;text-transform:none" d="m48 5c-0.833 0-1.537 0.574-1.781 1.0625-0.245 0.4885-0.219 0.9375-0.219 0.9375v7c-0.0075 0.52831 0.47164 1.0142 1 1.0142s1.0075-0.48593 1-1.0142v-3h1c0.52831 0.0075 1.0142-0.47164 1.0142-1 0-0.52837-0.48593-1.0075-1.0142-1h-1v-2h2c0.528 0.0075 1.014-0.4716 1.014-1s-0.486-1.0075-1.014-1zm6 0c-0.833 0-1.537 0.574-1.781 1.0625-0.245 0.4885-0.219 0.9375-0.219 0.9375v7c-0.0075 0.52831 0.47164 1.0142 1 1.0142s1.0075-0.48593 1-1.0142v-3h1c0.52831 0.0075 1.0142-0.47164 1.0142-1 0-0.52837-0.48593-1.0075-1.0142-1h-1v-2h2c0.528 0.0075 1.014-0.4716 1.014-1s-0.486-1.0075-1.014-1zm-14 1c-0.833 0-1.537 0.574-1.781 1.0625-0.245 0.4885-0.219 0.9375-0.219 0.9375v5c0 0.83333 0.57399 1.537 1.0625 1.7812 0.489 0.245 0.938 0.219 0.938 0.219h2c0.83333 0 1.537-0.57399 1.7812-1.0625 0.245-0.489 0.219-0.938 0.219-0.938v-5s0.026-0.449-0.219-0.9375c-0.244-0.4885-0.948-1.0625-1.781-1.0625zm0 2h2v5h-2z"/>
 <path id="path4065" d="m48 4c-0.833 0-1.537 0.574-1.781 1.0625-0.245 0.4885-0.219 0.9375-0.219 0.9375v7c-0.0075 0.52831 0.47164 1.0142 1 1.0142s1.0075-0.48593 1-1.0142v-3h1c0.52831 0.0075 1.0142-0.47164 1.0142-1 0-0.52837-0.48593-1.0075-1.0142-1h-1v-2h2c0.528 0.0075 1.014-0.4716 1.014-1s-0.486-1.0075-1.014-1zm6 0c-0.833 0-1.537 0.574-1.781 1.0625-0.245 0.4885-0.219 0.9375-0.219 0.9375v7c-0.0075 0.52831 0.47164 1.0142 1 1.0142s1.0075-0.48593 1-1.0142v-3h1c0.52831 0.0075 1.0142-0.47164 1.0142-1 0-0.52837-0.48593-1.0075-1.0142-1h-1v-2h2c0.528 0.0075 1.014-0.4716 1.014-1s-0.486-1.0075-1.014-1zm-14 1c-0.833 0-1.537 0.574-1.781 1.0625-0.245 0.4885-0.219 0.9375-0.219 0.9375v5c0 0.83333 0.57399 1.537 1.0625 1.7812 0.489 0.245 0.938 0.219 0.938 0.219h2c0.83333 0 1.537-0.57399 1.7812-1.0625 0.245-0.489 0.219-0.938 0.219-0.938v-5s0.026-0.449-0.219-0.9375c-0.244-0.4885-0.948-1.0625-1.781-1.0625zm0 2h2v5h-2z" style="block-progression:tb;text-indent:0;color:#000000;text-transform:none" fill="#FFF"/>
</svg>
