<?xml version="1.0" encoding="UTF-8" standalone="no"?>
<svg id="svg2857" xmlns:rdf="http://www.w3.org/1999/02/22-rdf-syntax-ns#" xmlns="http://www.w3.org/2000/svg" height="18" width="65" version="1.1" xmlns:cc="http://creativecommons.org/ns#" xmlns:dc="http://purl.org/dc/elements/1.1/">
 <metadata id="metadata31">
  <rdf:RDF>
   <cc:Work rdf:about="">
    <dc:format>image/svg+xml</dc:format>
    <dc:type rdf:resource="http://purl.org/dc/dcmitype/StillImage"/>
    <dc:title/>
   </cc:Work>
  </rdf:RDF>
 </metadata>
 <path id="path18606" stroke-width="0" fill="#729fcf" d="m12.01 5.574c0.63283 0.000006 1.1957 0.12395 1.6885 0.37182 0.49284 0.24789 0.88071 0.6095 1.1636 1.0849 0.28287 0.47244 0.42431 1.0222 0.42432 1.6491-0.00001 0.63575-0.13853 1.2-0.41557 1.6929-0.27705 0.48993-0.66637 0.87051-1.168 1.1417-0.50161 0.27121-1.0776 0.40682-1.7279 0.40682-0.4287 0-0.83552-0.06562-1.2205-0.19685-0.384-0.134-0.73-0.328-1.0362-0.581-0.3034-0.257-0.5454-0.589-0.7262-0.998-0.1779-0.408-0.2668-0.8688-0.2668-1.3821 0-0.63866 0.13998-1.2 0.41994-1.6841 0.27996-0.48701 0.66782-0.85884 1.1636-1.1155 0.49576-0.25954 1.063-0.38932 1.7016-0.38932m0.57305 1.0892c-0.201-0.0525-0.407-0.0787-0.617-0.0787-0.20998 0.000005-0.41411 0.02625-0.61242 0.07874-0.19831 0.04958-0.38932 0.12978-0.57304 0.24059-0.18081 0.10791-0.33975 0.24206-0.47681 0.40244-0.13707 0.1604-0.24643 0.3587-0.32808 0.59492-0.0817 0.2333-0.12249 0.4914-0.12249 0.77427 0 0.67366 0.20851 1.2146 0.62554 1.6229 0.41703 0.40828 0.93758 0.61242 1.5617 0.61242 0.25955 0.000001 0.51035-0.04228 0.7524-0.12686 0.24496-0.08457 0.47097-0.20997 0.67803-0.3762 0.20705-0.16622 0.37328-0.39224 0.49868-0.67803s0.1881-0.61096 0.1881-0.97549c0-0.29746-0.0437-0.56867-0.13123-0.81364-0.087-0.248-0.204-0.4536-0.349-0.6169-0.143-0.1633-0.311-0.3018-0.503-0.4155-0.19-0.1138-0.387-0.1954-0.591-0.245"/>
 <path id="rect820" fill="#3296dc" d="m3 18h25l8-18h-33c-1.108 0-2 0.892-2 2v14c0 1.108 0.892 2 2 2z"/>
 <rect id="rect102" opacity=".2" style="color:#000000" ry="1" height="8" width="2" stroke="#000" y="6" x="15"/>
 <rect id="rect89" style="color:#000000" fill-rule="evenodd" ry="1" height="8" width="2" y="5" x="15" fill="#fff"/>
 <path id="path1365" d="m38-4.7742e-8 -0.875 2h22.875c1-0.037037 1 1 1 1v12c0 1-1 1-1 1h-29.125l-0.875 2h31c1.108 0 2-0.892 2-2v-14c0-1.108-0.893-2.041-2-2z" fill="#3296dc"/>
</svg>
